<mxfile host="www.draw.io" modified="2020-02-15T06:00:02.395Z" agent="Mozilla/5.0 (Windows NT 10.0; Win64; x64) AppleWebKit/537.36 (KHTML, like Gecko) Chrome/79.0.3945.130 Safari/537.36" etag="fgM2mDMAHCK4KtosRt1a" version="12.7.0" type="github" pages="2">
  <diagram id="cfWL9I5VaqwXCQ-wAxmS" name="ページ1">
    <mxGraphModel dx="862" dy="1381" grid="1" gridSize="10" guides="1" tooltips="1" connect="1" arrows="1" fold="1" page="1" pageScale="1" pageWidth="690" pageHeight="980" math="0" shadow="0">
      <root>
        <mxCell id="0"/>
        <mxCell id="1" parent="0"/>
        <mxCell id="Yg40pVJLnZHHLznyGigl-1" value="" style="shape=cube;whiteSpace=wrap;html=1;boundedLbl=1;backgroundOutline=1;darkOpacity=0.05;darkOpacity2=0.1;size=33;fillColor=#ffcd28;strokeColor=#d79b00;gradientColor=#ffa500;" parent="1" vertex="1">
          <mxGeometry x="130" y="-235" width="130" height="50" as="geometry"/>
        </mxCell>
        <mxCell id="Yg40pVJLnZHHLznyGigl-3" value="" style="shape=cube;whiteSpace=wrap;html=1;boundedLbl=1;backgroundOutline=1;darkOpacity=0.05;darkOpacity2=0.1;size=33;fillColor=#fff2cc;strokeColor=#d6b656;gradientColor=#ffd966;" parent="1" vertex="1">
          <mxGeometry x="130" y="-255" width="130" height="50" as="geometry"/>
        </mxCell>
        <mxCell id="Yg40pVJLnZHHLznyGigl-4" value="" style="shape=cube;whiteSpace=wrap;html=1;boundedLbl=1;backgroundOutline=1;darkOpacity=0.05;darkOpacity2=0.1;size=33;fillColor=#fff2cc;strokeColor=#d6b656;gradientColor=#ffd966;" parent="1" vertex="1">
          <mxGeometry x="130" y="-275" width="130" height="50" as="geometry"/>
        </mxCell>
        <mxCell id="Yg40pVJLnZHHLznyGigl-6" value="" style="endArrow=none;html=1;" parent="1" edge="1">
          <mxGeometry width="50" height="50" relative="1" as="geometry">
            <mxPoint x="252" y="-164" as="sourcePoint"/>
            <mxPoint x="242" y="-194" as="targetPoint"/>
          </mxGeometry>
        </mxCell>
        <mxCell id="Yg40pVJLnZHHLznyGigl-7" value="" style="ellipse;whiteSpace=wrap;html=1;aspect=fixed;" parent="1" vertex="1">
          <mxGeometry x="239" y="-196" width="5" height="5" as="geometry"/>
        </mxCell>
        <mxCell id="Yg40pVJLnZHHLznyGigl-8" value="" style="ellipse;whiteSpace=wrap;html=1;aspect=fixed;" parent="1" vertex="1">
          <mxGeometry x="250" y="-165" width="5" height="5" as="geometry"/>
        </mxCell>
        <mxCell id="Yg40pVJLnZHHLznyGigl-9" value="ベースイメージ" style="text;html=1;strokeColor=none;fillColor=none;align=center;verticalAlign=middle;whiteSpace=wrap;rounded=0;fontColor=#FF8000;" parent="1" vertex="1">
          <mxGeometry x="210" y="-160" width="120" height="20" as="geometry"/>
        </mxCell>
        <mxCell id="Yg40pVJLnZHHLznyGigl-10" value="" style="shape=curlyBracket;whiteSpace=wrap;html=1;rounded=1;fontColor=#00CC00;" parent="1" vertex="1">
          <mxGeometry x="110" y="-275" width="20" height="86" as="geometry"/>
        </mxCell>
        <mxCell id="Yg40pVJLnZHHLznyGigl-11" value="読み取り専用" style="text;html=1;strokeColor=none;fillColor=none;align=center;verticalAlign=middle;whiteSpace=wrap;rounded=0;fontColor=#000000;" parent="1" vertex="1">
          <mxGeometry x="60" y="-247" width="50" height="30" as="geometry"/>
        </mxCell>
        <mxCell id="Yg40pVJLnZHHLznyGigl-12" value="" style="shape=curlyBracket;whiteSpace=wrap;html=1;rounded=1;fontColor=#00CC00;rotation=-180;" parent="1" vertex="1">
          <mxGeometry x="261" y="-273" width="20" height="68" as="geometry"/>
        </mxCell>
        <mxCell id="Yg40pVJLnZHHLznyGigl-13" value="&lt;font color=&quot;#ffb570&quot;&gt;イメージ層&lt;/font&gt;" style="text;html=1;strokeColor=none;fillColor=none;align=center;verticalAlign=middle;whiteSpace=wrap;rounded=0;fontColor=#000000;" parent="1" vertex="1">
          <mxGeometry x="281" y="-255" width="70" height="30" as="geometry"/>
        </mxCell>
        <mxCell id="Yg40pVJLnZHHLznyGigl-15" value="" style="shape=cube;whiteSpace=wrap;html=1;boundedLbl=1;backgroundOutline=1;darkOpacity=0.05;darkOpacity2=0.1;size=33;fillColor=#ffcd28;strokeColor=#d79b00;gradientColor=#ffa500;" parent="1" vertex="1">
          <mxGeometry x="410" y="-235" width="130" height="50" as="geometry"/>
        </mxCell>
        <mxCell id="Yg40pVJLnZHHLznyGigl-16" value="" style="shape=cube;whiteSpace=wrap;html=1;boundedLbl=1;backgroundOutline=1;darkOpacity=0.05;darkOpacity2=0.1;size=33;fillColor=#fff2cc;strokeColor=#d6b656;gradientColor=#ffd966;" parent="1" vertex="1">
          <mxGeometry x="410" y="-255" width="130" height="50" as="geometry"/>
        </mxCell>
        <mxCell id="Yg40pVJLnZHHLznyGigl-17" value="" style="shape=cube;whiteSpace=wrap;html=1;boundedLbl=1;backgroundOutline=1;darkOpacity=0.05;darkOpacity2=0.1;size=33;fillColor=#fff2cc;strokeColor=#d6b656;gradientColor=#ffd966;" parent="1" vertex="1">
          <mxGeometry x="410" y="-275" width="130" height="50" as="geometry"/>
        </mxCell>
        <mxCell id="Yg40pVJLnZHHLznyGigl-25" value="" style="shape=cube;whiteSpace=wrap;html=1;boundedLbl=1;backgroundOutline=1;darkOpacity=0.05;darkOpacity2=0.1;size=33;fillColor=#f8cecc;strokeColor=#b85450;gradientColor=#ea6b66;" parent="1" vertex="1">
          <mxGeometry x="410" y="-296" width="130" height="50" as="geometry"/>
        </mxCell>
        <mxCell id="Yg40pVJLnZHHLznyGigl-26" value="" style="endArrow=none;html=1;" parent="1" source="Yg40pVJLnZHHLznyGigl-27" edge="1">
          <mxGeometry width="50" height="50" relative="1" as="geometry">
            <mxPoint x="511" y="-286.5" as="sourcePoint"/>
            <mxPoint x="529" y="-308.5" as="targetPoint"/>
          </mxGeometry>
        </mxCell>
        <mxCell id="Yg40pVJLnZHHLznyGigl-28" value="" style="ellipse;whiteSpace=wrap;html=1;aspect=fixed;" parent="1" vertex="1">
          <mxGeometry x="509" y="-287.5" width="5" height="5" as="geometry"/>
        </mxCell>
        <mxCell id="Yg40pVJLnZHHLznyGigl-29" value="コンテナレイヤ&lt;br&gt;（書き込み可）" style="text;html=1;strokeColor=none;fillColor=none;align=center;verticalAlign=middle;whiteSpace=wrap;rounded=0;fontColor=#FF3333;" parent="1" vertex="1">
          <mxGeometry x="509" y="-336" width="120" height="30" as="geometry"/>
        </mxCell>
        <mxCell id="Yg40pVJLnZHHLznyGigl-27" value="" style="ellipse;whiteSpace=wrap;html=1;aspect=fixed;" parent="1" vertex="1">
          <mxGeometry x="529" y="-311" width="5" height="5" as="geometry"/>
        </mxCell>
        <mxCell id="Yg40pVJLnZHHLznyGigl-31" value="" style="endArrow=none;html=1;" parent="1" target="Yg40pVJLnZHHLznyGigl-27" edge="1">
          <mxGeometry width="50" height="50" relative="1" as="geometry">
            <mxPoint x="511" y="-286.5" as="sourcePoint"/>
            <mxPoint x="529" y="-308.5" as="targetPoint"/>
          </mxGeometry>
        </mxCell>
        <mxCell id="Yg40pVJLnZHHLznyGigl-32" value="" style="shape=cube;whiteSpace=wrap;html=1;boundedLbl=1;backgroundOutline=1;darkOpacity=0.05;darkOpacity2=0.1;fontSize=14;gradientColor=#ea6b66;fillColor=#f8cecc;strokeColor=#b85450;opacity=20;size=35;" parent="1" vertex="1">
          <mxGeometry x="400" y="-306.25" width="150" height="126.5" as="geometry"/>
        </mxCell>
        <mxCell id="Yg40pVJLnZHHLznyGigl-37" value="" style="shape=cube;whiteSpace=wrap;html=1;boundedLbl=1;backgroundOutline=1;darkOpacity=0.05;darkOpacity2=0.1;fontSize=14;gradientColor=#7ea6e0;fillColor=#dae8fc;strokeColor=#6c8ebf;opacity=20;size=35;" parent="1" vertex="1">
          <mxGeometry x="120" y="-306.25" width="150" height="126.5" as="geometry"/>
        </mxCell>
        <mxCell id="Yg40pVJLnZHHLznyGigl-38" value="コンテナ" style="rounded=0;whiteSpace=wrap;html=1;fontSize=14;gradientColor=#ea6b66;fillColor=#f8cecc;strokeColor=#b85450;" parent="1" vertex="1">
          <mxGeometry x="419" y="-350" width="79" height="30" as="geometry"/>
        </mxCell>
        <mxCell id="Yg40pVJLnZHHLznyGigl-39" value="イメージ" style="rounded=0;whiteSpace=wrap;html=1;fontSize=14;gradientColor=#7ea6e0;fillColor=#dae8fc;strokeColor=#6c8ebf;" parent="1" vertex="1">
          <mxGeometry x="140" y="-350" width="79" height="30" as="geometry"/>
        </mxCell>
        <mxCell id="kmWydQNdGIb3SOjTC5M1-1" value="" style="shape=flexArrow;endArrow=classic;html=1;width=24;endSize=9.33;fillColor=#E6E6E6;" edge="1" parent="1">
          <mxGeometry width="50" height="50" relative="1" as="geometry">
            <mxPoint x="300" y="-288.5" as="sourcePoint"/>
            <mxPoint x="379" y="-288.5" as="targetPoint"/>
          </mxGeometry>
        </mxCell>
        <mxCell id="kmWydQNdGIb3SOjTC5M1-3" value="dockerd" style="text;html=1;strokeColor=none;fillColor=none;align=center;verticalAlign=middle;whiteSpace=wrap;rounded=0;fontColor=#000000;" vertex="1" parent="1">
          <mxGeometry x="310" y="-303" width="50" height="30" as="geometry"/>
        </mxCell>
      </root>
    </mxGraphModel>
  </diagram>
  <diagram id="lJ_muPP2k9wOJaN6G1gM" name="ページ2">
        <mxGraphModel dx="862" dy="450" grid="1" gridSize="10" guides="1" tooltips="1" connect="1" arrows="1" fold="1" page="1" pageScale="1" pageWidth="690" pageHeight="980" math="0" shadow="0">
            <root>
                <mxCell id="-dtmN8aaOdj8T2KV-MH8-0"/>
                <mxCell id="-dtmN8aaOdj8T2KV-MH8-1" parent="-dtmN8aaOdj8T2KV-MH8-0"/>
                <mxCell id="CzjIRd_wZLIxVllQWqMt-0" value="" style="shape=cube;whiteSpace=wrap;html=1;boundedLbl=1;backgroundOutline=1;darkOpacity=0.05;darkOpacity2=0.1;size=33;fillColor=#ffcd28;strokeColor=#d79b00;gradientColor=#ffa500;" vertex="1" parent="-dtmN8aaOdj8T2KV-MH8-1">
                    <mxGeometry x="140" y="245" width="130" height="50" as="geometry"/>
                  </mxCell>
                <mxCell id="CzjIRd_wZLIxVllQWqMt-1" value="" style="shape=cube;whiteSpace=wrap;html=1;boundedLbl=1;backgroundOutline=1;darkOpacity=0.05;darkOpacity2=0.1;size=33;fillColor=#fff2cc;strokeColor=#d6b656;gradientColor=#ffd966;" vertex="1" parent="-dtmN8aaOdj8T2KV-MH8-1">
                    <mxGeometry x="140" y="225" width="130" height="50" as="geometry"/>
                  </mxCell>
                <mxCell id="CzjIRd_wZLIxVllQWqMt-2" value="" style="shape=cube;whiteSpace=wrap;html=1;boundedLbl=1;backgroundOutline=1;darkOpacity=0.05;darkOpacity2=0.1;size=33;fillColor=#fff2cc;strokeColor=#d6b656;gradientColor=#ffd966;" vertex="1" parent="-dtmN8aaOdj8T2KV-MH8-1">
                    <mxGeometry x="140" y="205" width="130" height="50" as="geometry"/>
                  </mxCell>
                <mxCell id="CzjIRd_wZLIxVllQWqMt-3" value="" style="endArrow=none;html=1;exitX=1.013;exitY=0.952;exitDx=0;exitDy=0;exitPerimeter=0;" edge="1" parent="-dtmN8aaOdj8T2KV-MH8-1" source="CzjIRd_wZLIxVllQWqMt-11">
                    <mxGeometry width="50" height="50" relative="1" as="geometry">
                        <mxPoint x="262" y="316" as="sourcePoint"/>
                        <mxPoint x="252" y="286" as="targetPoint"/>
                      </mxGeometry>
                  </mxCell>
                <mxCell id="CzjIRd_wZLIxVllQWqMt-4" value="" style="ellipse;whiteSpace=wrap;html=1;aspect=fixed;" vertex="1" parent="-dtmN8aaOdj8T2KV-MH8-1">
                    <mxGeometry x="249" y="284" width="5" height="5" as="geometry"/>
                  </mxCell>
                <mxCell id="CzjIRd_wZLIxVllQWqMt-5" value="" style="ellipse;whiteSpace=wrap;html=1;aspect=fixed;" vertex="1" parent="-dtmN8aaOdj8T2KV-MH8-1">
                    <mxGeometry x="279" y="292" width="5" height="5" as="geometry"/>
                  </mxCell>
                <mxCell id="CzjIRd_wZLIxVllQWqMt-6" value="ベースイメージ" style="text;html=1;strokeColor=none;fillColor=none;align=center;verticalAlign=middle;whiteSpace=wrap;rounded=0;fontColor=#FF8000;" vertex="1" parent="-dtmN8aaOdj8T2KV-MH8-1">
                    <mxGeometry x="269" y="288" width="120" height="20" as="geometry"/>
                  </mxCell>
                <mxCell id="CzjIRd_wZLIxVllQWqMt-7" value="" style="shape=curlyBracket;whiteSpace=wrap;html=1;rounded=1;fontColor=#00CC00;" vertex="1" parent="-dtmN8aaOdj8T2KV-MH8-1">
                    <mxGeometry x="120" y="205" width="20" height="86" as="geometry"/>
                  </mxCell>
                <mxCell id="CzjIRd_wZLIxVllQWqMt-8" value="読み取り専用" style="text;html=1;strokeColor=none;fillColor=none;align=center;verticalAlign=middle;whiteSpace=wrap;rounded=0;fontColor=#000000;" vertex="1" parent="-dtmN8aaOdj8T2KV-MH8-1">
                    <mxGeometry x="70" y="233" width="50" height="30" as="geometry"/>
                  </mxCell>
                <mxCell id="CzjIRd_wZLIxVllQWqMt-9" value="" style="shape=curlyBracket;whiteSpace=wrap;html=1;rounded=1;fontColor=#00CC00;rotation=-180;" vertex="1" parent="-dtmN8aaOdj8T2KV-MH8-1">
                    <mxGeometry x="271" y="207" width="20" height="68" as="geometry"/>
                  </mxCell>
                <mxCell id="CzjIRd_wZLIxVllQWqMt-10" value="イメージ層" style="text;html=1;strokeColor=none;fillColor=none;align=center;verticalAlign=middle;whiteSpace=wrap;rounded=0;fontColor=#000000;" vertex="1" parent="-dtmN8aaOdj8T2KV-MH8-1">
                    <mxGeometry x="291" y="225" width="70" height="30" as="geometry"/>
                  </mxCell>
                <mxCell id="CzjIRd_wZLIxVllQWqMt-11" value="" style="shape=cube;whiteSpace=wrap;html=1;boundedLbl=1;backgroundOutline=1;darkOpacity=0.05;darkOpacity2=0.1;fontSize=14;gradientColor=#7ea6e0;fillColor=#dae8fc;strokeColor=#6c8ebf;opacity=20;size=35;" vertex="1" parent="-dtmN8aaOdj8T2KV-MH8-1">
                    <mxGeometry x="130" y="173.75" width="150" height="126.25" as="geometry"/>
                  </mxCell>
                <mxCell id="CzjIRd_wZLIxVllQWqMt-12" value="イメージ" style="rounded=0;whiteSpace=wrap;html=1;fontSize=14;gradientColor=#7ea6e0;fillColor=#dae8fc;strokeColor=#6c8ebf;" vertex="1" parent="-dtmN8aaOdj8T2KV-MH8-1">
                    <mxGeometry x="150" y="130" width="79" height="30" as="geometry"/>
                  </mxCell>
                <mxCell id="uf6RUyeMBZ0KuSeUqPo9-0" value="" style="shape=cube;whiteSpace=wrap;html=1;boundedLbl=1;backgroundOutline=1;darkOpacity=0.05;darkOpacity2=0.1;size=33;fillColor=#ffcd28;strokeColor=#d79b00;gradientColor=#ffa500;" vertex="1" parent="-dtmN8aaOdj8T2KV-MH8-1">
                    <mxGeometry x="420" y="245" width="130" height="50" as="geometry"/>
                  </mxCell>
                <mxCell id="uf6RUyeMBZ0KuSeUqPo9-1" value="" style="shape=cube;whiteSpace=wrap;html=1;boundedLbl=1;backgroundOutline=1;darkOpacity=0.05;darkOpacity2=0.1;size=33;fillColor=#fff2cc;strokeColor=#d6b656;gradientColor=#ffd966;" vertex="1" parent="-dtmN8aaOdj8T2KV-MH8-1">
                    <mxGeometry x="420" y="225" width="130" height="50" as="geometry"/>
                  </mxCell>
                <mxCell id="uf6RUyeMBZ0KuSeUqPo9-2" value="" style="shape=cube;whiteSpace=wrap;html=1;boundedLbl=1;backgroundOutline=1;darkOpacity=0.05;darkOpacity2=0.1;size=33;fillColor=#fff2cc;strokeColor=#d6b656;gradientColor=#ffd966;" vertex="1" parent="-dtmN8aaOdj8T2KV-MH8-1">
                    <mxGeometry x="420" y="205" width="130" height="50" as="geometry"/>
                  </mxCell>
                <mxCell id="uf6RUyeMBZ0KuSeUqPo9-3" value="" style="shape=cube;whiteSpace=wrap;html=1;boundedLbl=1;backgroundOutline=1;darkOpacity=0.05;darkOpacity2=0.1;size=33;fillColor=#f8cecc;strokeColor=#b85450;gradientColor=#ea6b66;" vertex="1" parent="-dtmN8aaOdj8T2KV-MH8-1">
                    <mxGeometry x="420" y="184" width="130" height="50" as="geometry"/>
                  </mxCell>
                <mxCell id="uf6RUyeMBZ0KuSeUqPo9-4" value="" style="endArrow=none;html=1;" edge="1" parent="-dtmN8aaOdj8T2KV-MH8-1" source="uf6RUyeMBZ0KuSeUqPo9-7">
                    <mxGeometry width="50" height="50" relative="1" as="geometry">
                        <mxPoint x="521" y="193.5" as="sourcePoint"/>
                        <mxPoint x="539" y="171.5" as="targetPoint"/>
                      </mxGeometry>
                  </mxCell>
                <mxCell id="uf6RUyeMBZ0KuSeUqPo9-5" value="" style="ellipse;whiteSpace=wrap;html=1;aspect=fixed;" vertex="1" parent="-dtmN8aaOdj8T2KV-MH8-1">
                    <mxGeometry x="519" y="192.5" width="5" height="5" as="geometry"/>
                  </mxCell>
                <mxCell id="uf6RUyeMBZ0KuSeUqPo9-6" value="コンテナレイヤ&lt;br&gt;（書き込み可）" style="text;html=1;strokeColor=none;fillColor=none;align=center;verticalAlign=middle;whiteSpace=wrap;rounded=0;fontColor=#FF3333;" vertex="1" parent="-dtmN8aaOdj8T2KV-MH8-1">
                    <mxGeometry x="519" y="144" width="120" height="30" as="geometry"/>
                  </mxCell>
                <mxCell id="uf6RUyeMBZ0KuSeUqPo9-7" value="" style="ellipse;whiteSpace=wrap;html=1;aspect=fixed;" vertex="1" parent="-dtmN8aaOdj8T2KV-MH8-1">
                    <mxGeometry x="539" y="169" width="5" height="5" as="geometry"/>
                  </mxCell>
                <mxCell id="uf6RUyeMBZ0KuSeUqPo9-8" value="" style="endArrow=none;html=1;" edge="1" parent="-dtmN8aaOdj8T2KV-MH8-1" target="uf6RUyeMBZ0KuSeUqPo9-7">
                    <mxGeometry width="50" height="50" relative="1" as="geometry">
                        <mxPoint x="521" y="193.5" as="sourcePoint"/>
                        <mxPoint x="539" y="171.5" as="targetPoint"/>
                      </mxGeometry>
                  </mxCell>
                <mxCell id="uf6RUyeMBZ0KuSeUqPo9-9" value="" style="shape=cube;whiteSpace=wrap;html=1;boundedLbl=1;backgroundOutline=1;darkOpacity=0.05;darkOpacity2=0.1;fontSize=14;gradientColor=#ea6b66;fillColor=#f8cecc;strokeColor=#b85450;opacity=20;size=35;" vertex="1" parent="-dtmN8aaOdj8T2KV-MH8-1">
                    <mxGeometry x="410" y="173.75" width="150" height="126.5" as="geometry"/>
                  </mxCell>
                <mxCell id="uf6RUyeMBZ0KuSeUqPo9-10" value="コンテナ" style="rounded=0;whiteSpace=wrap;html=1;fontSize=14;gradientColor=#ea6b66;fillColor=#f8cecc;strokeColor=#b85450;" vertex="1" parent="-dtmN8aaOdj8T2KV-MH8-1">
                    <mxGeometry x="429" y="130" width="79" height="30" as="geometry"/>
                  </mxCell>
                <mxCell id="uf6RUyeMBZ0KuSeUqPo9-11" value="dockerd" style="shape=flexArrow;endArrow=classic;html=1;fontSize=16;fontColor=#000000;width=22;endSize=9.33;labelBackgroundColor=none;gradientColor=#b3b3b3;fillColor=#f5f5f5;strokeColor=#666666;" edge="1" parent="-dtmN8aaOdj8T2KV-MH8-1">
                    <mxGeometry width="50" height="50" relative="1" as="geometry">
                        <mxPoint x="300.5" y="194.5" as="sourcePoint"/>
                        <mxPoint x="390" y="195" as="targetPoint"/>
                      </mxGeometry>
                  </mxCell>
              </root>
          </mxGraphModel>
      </diagram>
</mxfile>
